<?xml version="1.0" standalone="no"?>
<!DOCTYPE svg PUBLIC "-//W3C//DTD SVG 20010904//EN"
 "http://www.w3.org/TR/2001/REC-SVG-20010904/DTD/svg10.dtd">
<svg version="1.0" xmlns="http://www.w3.org/2000/svg"
 width="1500.000000pt" height="1500.000000pt" viewBox="0 0 1500.000000 1500.000000"
 preserveAspectRatio="xMidYMid meet">
<metadata>
Created by potrace 1.11, written by Peter Selinger 2001-2013
</metadata>
<g transform="translate(0.000000,1500.000000) scale(0.100000,-0.100000)"
fill="#000000" stroke="none">
<path d="M875 7988 l0 -4603 6758 -1 6757 -1 0 4603 0 4604 -6758 0 -6757 0 0
-4602z m13236 4335 c4 -25 3 -8673 -1 -8674 -3 -1 -2922 -2 -6488 -3 l-6482
-1 0 4343 0 4342 6485 0 c3567 0 6486 -3 6486 -7z"/>
<path d="M4801 11721 c-5 -9 -27 -78 -50 -154 -22 -76 -43 -142 -46 -147 -4
-6 0 -10 7 -11 7 0 20 -2 28 -4 8 -1 56 -5 105 -9 331 -24 533 -83 624 -182
67 -72 95 -143 95 -239 0 -74 -8 -145 -20 -187 -3 -9 -6 -25 -8 -35 -15 -77
-81 -333 -121 -468 -8 -27 -44 -156 -80 -285 -148 -528 -187 -667 -201 -711
-8 -25 -16 -54 -19 -65 -2 -10 -20 -75 -40 -144 -20 -69 -38 -132 -40 -140 -1
-8 -12 -46 -23 -85 -29 -99 -83 -287 -87 -305 -2 -8 -33 -118 -68 -245 -91
-318 -256 -902 -263 -930 -2 -9 -46 -160 -89 -310 -8 -27 -44 -156 -80 -285
-95 -337 -184 -628 -214 -695 -5 -11 -23 -60 -41 -110 -124 -345 -296 -667
-474 -890 -303 -378 -705 -600 -1086 -599 -84 0 -114 5 -151 21 -94 42 -172
140 -163 206 4 36 51 110 150 232 122 153 166 263 163 410 -4 198 -92 353
-263 466 -154 101 -407 124 -589 52 -167 -66 -309 -195 -400 -363 -133 -247
-134 -598 -2 -862 103 -205 279 -379 490 -485 57 -29 191 -81 226 -88 9 -2 59
-12 110 -23 52 -11 128 -24 169 -28 138 -15 516 -9 615 10 11 2 42 7 68 10
189 26 463 104 642 184 229 102 499 271 670 420 348 303 605 663 809 1134 52
120 156 388 156 401 0 5 6 23 14 40 8 18 38 104 66 192 28 88 56 171 60 185
13 35 60 196 65 217 2 10 24 88 48 173 25 85 52 180 60 210 29 104 97 345 106
375 6 17 60 208 121 425 61 217 115 409 121 425 10 32 197 695 255 905 19 69
41 146 50 171 8 25 17 55 19 67 9 41 14 57 40 147 15 50 28 97 30 105 4 15 56
206 96 350 12 41 23 83 24 92 2 10 22 80 45 155 131 436 250 691 369 793 103
88 286 156 476 176 28 3 64 7 80 9 17 1 68 3 115 4 l85 1 28 98 c15 53 30 104
32 112 2 8 9 31 15 50 6 19 13 45 16 56 l4 22 -1470 -1 c-1342 0 -1472 -1
-1479 -16z"/>
<path d="M8166 11596 c-24 -78 -48 -153 -51 -168 l-7 -28 128 -1 c457 -2 598
-47 681 -217 26 -53 28 -65 28 -182 0 -69 -3 -147 -7 -175 -4 -27 -10 -68 -13
-90 -3 -22 -8 -53 -12 -70 -8 -36 -7 -30 -17 -80 -12 -64 -83 -340 -116 -455
-17 -58 -33 -112 -35 -120 -2 -8 -33 -118 -68 -245 -36 -126 -133 -468 -215
-760 -83 -291 -160 -564 -172 -605 -11 -41 -27 -97 -35 -125 -8 -27 -56 -201
-108 -385 -52 -184 -127 -450 -166 -590 -40 -140 -80 -284 -91 -320 -30 -101
-231 -813 -235 -830 -15 -68 -214 -744 -251 -850 -161 -471 -245 -596 -467
-699 -56 -26 -148 -53 -187 -56 -8 -1 -37 -4 -65 -8 -58 -9 -182 -17 -278 -19
-37 0 -71 -6 -76 -12 -9 -12 -111 -303 -111 -317 0 -5 619 -9 1495 -9 l1494 0
11 38 c5 20 28 93 50 162 21 68 38 125 37 127 -3 2 -85 10 -197 18 -41 3 -91
7 -110 10 -19 2 -60 7 -90 10 -98 11 -257 45 -314 66 -59 23 -125 78 -149 126
-15 28 -27 78 -29 118 -3 58 45 304 82 425 6 19 20 64 30 100 10 36 37 128 60
205 23 77 47 163 55 190 17 64 240 849 265 935 10 36 26 92 35 125 9 33 25 89
35 125 37 123 168 587 175 620 3 13 69 241 81 280 5 14 69 15 542 14 462 -1
702 -7 722 -19 3 -2 30 -6 60 -10 78 -10 211 -50 280 -85 33 -17 85 -56 118
-90 178 -181 200 -453 77 -955 -8 -33 -14 -65 -15 -72 0 -8 49 -11 177 -10
l178 2 28 100 c16 55 35 123 42 150 7 28 23 84 35 125 12 41 32 113 45 160 30
108 105 373 143 510 17 58 71 251 121 430 179 635 211 747 271 960 34 118 63
224 65 235 3 11 14 49 25 84 10 36 17 67 14 70 -3 3 -77 6 -163 6 l-158 0 -39
-75 c-170 -327 -376 -611 -538 -739 -157 -125 -349 -191 -686 -236 -61 -9
-1190 -19 -1190 -11 0 3 27 102 61 219 33 116 62 219 64 227 4 19 121 434 255
905 56 198 103 365 104 370 2 6 10 35 19 65 8 30 38 136 66 235 28 99 76 268
106 375 31 107 58 203 60 213 5 21 5 22 35 125 l21 74 997 -5 c548 -3 1024 -7
1057 -10 162 -15 194 -19 250 -28 179 -31 372 -133 506 -268 145 -146 203
-308 203 -561 0 -76 -12 -238 -19 -275 -2 -11 -7 -42 -10 -70 -7 -60 -34 -223
-41 -246 -4 -14 14 -16 160 -18 149 -2 164 -1 171 16 3 10 36 119 71 243 36
124 86 295 111 380 24 85 47 162 49 170 4 18 9 35 129 450 53 184 98 342 100
350 2 8 10 38 19 65 34 107 93 320 90 326 -2 4 -1311 6 -2908 6 l-2905 0 -45
-141z"/>
</g>
</svg>
